<?xml version="1.0" encoding="utf-8"?>
<!-- Generator: Adobe Illustrator 26.3.1, SVG Export Plug-In . SVG Version: 6.00 Build 0)  -->
<svg version="1.1" id="SvgjsSvg1013" xmlns:svgjs="http://svgjs.com/svgjs"
	 xmlns="http://www.w3.org/2000/svg" xmlns:xlink="http://www.w3.org/1999/xlink" x="0px" y="0px" viewBox="0 0 288 288"
	 style="enable-background:new 0 0 288 288;" xml:space="preserve">
<style type="text/css">
	.st0{fill:#616161;stroke:#616160;stroke-width:18;stroke-miterlimit:10;}
</style>
<g id="SvgjsG1015">
	<path class="st0" d="M124.2,265.6c-3.5,0-6.7-2.3-7.9-5.9c-1.4-4.3-3.3-8.4-5.2-12.6c-2-4.5-4.1-9.2-5.9-14.4
		c-4.2-11.3-9.8-26.2-18.6-29.6c-3.4-1.7-4.4-1.6-7-1.6c-1.6,0-3.3,0-5.4-0.2c-6.7-0.7-13.7-4.7-14.4-5.1c-0.2-0.1-0.5-0.3-0.7-0.5
		c0,0-28.4-20.7-45.8-33.4c-2.5-1.9-3.9-5.1-3.5-8.3s2.5-6,5.4-7.1l61.5-23.8c7.7-2.4,14.1-12.2,18.4-18.7c2.2-3.4,4-6.1,5.9-8
		c0.6-0.6,1.4-1.2,2.2-1.6c0.6-0.3,1.2-0.7,1.9-1.1c2.6-1.7,6.4-4.1,11.6-4.4c1-0.5,2.1-1,3.3-1.3c2.9-1.6,5.6-3.7,8.2-5.8
		c1.7-1.3,3.3-2.6,5-3.8c1.2-1.2,3.3-3.5,4.1-5.1c0.3-0.6,0.6-1.1,1-1.5c6.2-7.9,14.8-19.3,19.3-26.7c2.5-7.9,9.6-19.4,17.8-22.1
		c0.4-0.1,0.8-0.2,1.2-0.3c1.6-0.8,3.6-1.7,6.1-1.7c11.6,0,19.2,11.9,23.3,18.2l0.9,1.4c8.8,12.3,13.9,26.6,18.4,40.2
		c2.3,6.2,4.4,12.8,6.4,19.3c1.9,6.2,3.8,12.4,6.1,18.5c0,0.1,0.1,0.3,0.1,0.4l6.3,16.8c10.2,27.2,19.8,52.9,32.6,78.8
		c1.7,3.3,1.1,7.4-1.4,10.1c-2.5,2.7-6.4,3.4-9.6,1.8c-5-2.5-8.3-5.7-11.8-9c-2-1.9-4.1-3.9-7-6.2c-5.2-5.2-8-8-12.1-10.7
		c-0.5-0.3-0.9-0.7-1.3-1.1c-0.8-0.8-4.5-3.4-7.3-4.8c-14.7-7.3-26.9,5.8-42.7,25.2l-0.9,1.2c-4.4,4.5-8.3,8.8-12.2,13.1
		c-4,4.5-8.1,8.9-12.1,13c-9.4,9.5-18.7,14.7-32.3,18.1C125.5,265.6,124.8,265.6,124.2,265.6z M80.5,184.1c3.3,0,7.1,0.2,12.6,3
		c15.2,5.7,22.3,24.9,27.6,38.9c1.8,5.3,3.6,9.4,5.6,13.7c1,2.2,2,4.3,2.9,6.6c6.9-2.5,12.1-6,17.6-11.6c3.9-3.9,7.7-8.1,11.5-12.4
		c4-4.5,8.1-9,12.1-13l0.4-0.5c14.1-17.3,35.3-43.4,62.7-29.6c3.2,1.6,8.2,4.8,10.9,7.3c0.5,0.4,1,0.7,1.6,1.1
		c-6.1-14.8-11.7-29.8-17.4-45.2l-6.5-17.2c-0.1-0.2-0.1-0.3-0.2-0.5c-2.3-6.3-4.3-12.7-6.3-19c-1.9-6.2-3.9-12.4-6.2-18.7
		c-5.2-15.7-9.5-26.5-16.3-36.1L192,49c-4.6-7.2-7.2-9.7-8.7-10.3c-0.9,0.4-2,0.9-3.2,1.2c-1.8,1.3-5.8,7.1-6.8,11.2
		c-0.2,0.9-0.5,1.7-1,2.4c-5.3,8.9-15.2,22-20.7,28.9c-2,3.6-4.9,6.7-7.4,9.3c-0.4,0.4-0.8,0.7-1.3,1.1c-1.5,1-3,2.2-4.6,3.5
		c-3.4,2.7-7.2,5.7-12.1,8.1c-0.7,0.4-1.5,0.6-2.3,0.7c-1.6,0.8-3.6,1.7-6.1,1.7c-1,0-2.2,0.7-4,1.9c-0.6,0.4-1.2,0.8-1.8,1.1
		c-0.8,1.1-2.1,3-3.2,4.7c-5.6,8.5-14,21.4-26.9,25.4l-46.1,17.8c14.3,10.4,29.7,21.6,32.3,23.5c1.7,0.9,5.2,2.6,7.6,2.8
		c1.4,0.1,2.6,0.1,3.6,0.1C79.8,184.1,80.1,184.1,80.5,184.1z M122.6,105.2C122.6,105.2,122.6,105.2,122.6,105.2
		C122.6,105.2,122.6,105.2,122.6,105.2z M177.8,22.6C177.8,22.6,177.8,22.6,177.8,22.6C177.8,22.6,177.8,22.6,177.8,22.6z"/>
	<path class="st0" d="M71.1,198.6c-3.5,0-6.6-1-9.1-2.9c-3.8-2.8-4.6-8.3-2-12.2c2.7-3.9,7.9-4.8,11.7-2c0.6-0.2,7.2-1.5,19.2-10.9
		c21.7-16.9,60.3-61.1,67-119.6c0.5-4.8,4.8-8.1,9.3-7.6c4.6,0.6,7.9,4.9,7.3,9.7c-7.8,68.3-58.4,127.4-90.3,142.1
		C79.3,197.5,74.9,198.6,71.1,198.6z"/>
	<path class="st0" d="M115.5,164.6c-1.6,0-3.2-0.5-4.6-1.4L75,138.7c-3.9-2.6-5-8-2.4-12.1c2.5-4,7.7-5.2,11.6-2.5l35.9,24.4
		c3.9,2.6,5,8,2.4,12.1C120.9,163.2,118.2,164.6,115.5,164.6z"/>
</g>
</svg>
